<svg width="64" height="64" viewBox="0 0 64 64" fill="none" xmlns="http://www.w3.org/2000/svg">
<path d="M29.8407 8.50657C31.5363 5.77874 35.6928 6.99745 35.6928 10.2224V24.0833C35.6928 25.8598 37.1123 27.3 38.8632 27.3H46.1631C48.659 27.3 50.1761 30.0905 48.8448 32.2325L35.5031 55.4934C33.8076 58.2213 29.651 57.0026 29.651 53.7776V38.6667C29.651 36.8902 28.2316 35.45 26.4806 35.45H19.1808C16.6849 35.45 15.1677 32.6595 16.4991 30.5175L23.1699 19.5121L29.8407 8.50657Z" stroke="#F35320" stroke-width="3" stroke-linecap="round"/>
<path opacity="0.5" d="M17.8417 16.4875L11 12.3405" stroke="#F35320" stroke-width="3" stroke-linecap="round"/>
<path opacity="0.5" d="M15.3417 21.1338L11.8333 19.0072" stroke="#F35320" stroke-width="3" stroke-linecap="round"/>
<path opacity="0.5" d="M46.0052 48.3129L52.8469 52.4599" stroke="#F35320" stroke-width="3" stroke-linecap="round"/>
<path opacity="0.5" d="M48.5052 43.6667L52.0136 45.7932" stroke="#F35320" stroke-width="3" stroke-linecap="round"/>
</svg>
