<?xml version="1.0" encoding="UTF-8"?>
<svg width="76px" height="52px" viewBox="0 0 76 52" version="1.1" xmlns="http://www.w3.org/2000/svg" xmlns:xlink="http://www.w3.org/1999/xlink">
    <!-- Generator: Sketch 41.2 (35397) - http://www.bohemiancoding.com/sketch -->
    <title>errors-white</title>
    <desc>Created with Sketch.</desc>
    <defs></defs>
    <g id="Page-1" stroke="none" stroke-width="1" fill="none" fill-rule="evenodd">
        <g id="Artboard" transform="translate(-198.000000, -71.000000)">
            <g id="errors-white" transform="translate(198.000000, 71.000000)">
                <path d="M56.7114569,49.9222815 C55.9338063,51.223203 54.5645949,52 53.049414,52 L14.9581928,52 C13.4421582,52 12.0729469,51.223203 11.2952963,49.9222815 C10.516792,48.62136 10.4809399,47.0481327 11.1979832,45.7122126 L30.2431671,10.2484431 C30.9994771,8.8408187 32.4053942,8 34.0033766,8 C35.6022125,8 37.0072761,8.8408187 37.7635861,10.2484431 L56.8087699,45.7122126 C57.5266669,47.0481327 57.4899611,48.62136 56.7114569,49.9222815 Z" id="Shape" fill="#FFFFFF" opacity="0.5"></path>
                <path d="M25.6338828,52 L4.27831858,52 C3.00347136,52 1.85208907,51.3467844 1.19815561,50.2528276 C0.543504337,49.1588709 0.513355923,47.8359298 1.1163242,46.7125424 L17.1315924,16.8907362 C17.7675804,15.7070521 18.9498289,15 20.2935868,15 C21.6380625,15 22.8195932,15.7070521 23.4555812,16.8907362 L25.0658117,19.8891239 L11.1979832,45.7122126 C10.4809399,47.0481327 10.516792,48.62136 11.2952963,49.9222815 C12.0729469,51.223203 13.4421582,52 14.9581928,52 L25.6338828,52 Z" id="Combined-Shape" fill="#FFFFFF" opacity="0.200000003"></path>
                <path d="M74.604,49.566 C73.693,51.09 72.089,52 70.314,52 L25.691,52 C23.915,52 22.311,51.09 21.4,49.566 C20.488,48.042 20.446,46.199 21.286,44.634 L43.597,3.089 C44.483,1.44 46.13,0.455 48.002,0.455 C49.875,0.455 51.521,1.44 52.407,3.089 L74.718,44.634 C75.559,46.199 75.516,48.042 74.604,49.566 Z" id="Shape" fill="#FFFFFF"></path>
                <rect id="Rectangle-4" fill="#DC4904" x="45" y="15" width="6" height="18" rx="3"></rect>
                <rect id="Rectangle-4" fill="#DC4904" x="44.5" y="37" width="7" height="7" rx="3.5"></rect>
            </g>
        </g>
    </g>
</svg>