<?xml version="1.0" encoding="UTF-8"?>
<svg width="74px" height="46px" viewBox="0 0 74 46" version="1.1" xmlns="http://www.w3.org/2000/svg" xmlns:xlink="http://www.w3.org/1999/xlink">
    <!-- Generator: Sketch 41.2 (35397) - http://www.bohemiancoding.com/sketch -->
    <title>hosts</title>
    <desc>Created with Sketch.</desc>
    <defs>
        <linearGradient x1="50%" y1="0%" x2="50%" y2="100%" id="linearGradient-1">
            <stop stop-color="#8A0C8F" stop-opacity="0.575605752" offset="0%"></stop>
            <stop stop-color="#8A0C8F" offset="100%"></stop>
        </linearGradient>
        <linearGradient x1="50%" y1="0%" x2="50%" y2="100%" id="linearGradient-2">
            <stop stop-color="#8A0C8F" stop-opacity="0.3" offset="0%"></stop>
            <stop stop-color="#8A0C8F" stop-opacity="0.6" offset="100%"></stop>
        </linearGradient>
    </defs>
    <g id="Page-1" stroke="none" stroke-width="1" fill="none" fill-rule="evenodd">
        <g id="Artboard" transform="translate(-721.000000, -82.000000)">
            <g id="hosts" transform="translate(722.000000, 82.000000)">
                <rect id="Rectangle-5" fill="#8A0C8F" opacity="0.300000012" x="11" y="0" width="50" height="14" rx="3"></rect>
                <rect id="Rectangle-6" fill="#FFFFFF" x="16" y="4" width="2" height="6" rx="1"></rect>
                <circle id="Oval-2" fill="#FFFFFF" cx="55" cy="7" r="1"></circle>
                <circle id="Oval-2" fill="#FFFFFF" cx="51" cy="7" r="1"></circle>
                <circle id="Oval-2" fill="#FFFFFF" cx="47" cy="7" r="1"></circle>
                <rect id="Rectangle-5" fill="#8A0C8F" opacity="0.600000024" x="11" y="16" width="50" height="14" rx="3"></rect>
                <rect id="Rectangle-6" fill="#FFFFFF" x="16" y="20" width="2" height="6" rx="1"></rect>
                <circle id="Oval-2" fill="#FFFFFF" cx="55" cy="23" r="1"></circle>
                <circle id="Oval-2" fill="#FFFFFF" cx="51" cy="23" r="1"></circle>
                <circle id="Oval-2" fill="#FFFFFF" cx="47" cy="23" r="1"></circle>
                <rect id="Rectangle-5" fill="#8A0C8F" x="11" y="32" width="50" height="14" rx="3"></rect>
                <rect id="Rectangle-6" fill="#FFFFFF" x="16" y="36" width="2" height="6" rx="1"></rect>
                <circle id="Oval-2" fill="#FFFFFF" cx="55" cy="39" r="1"></circle>
                <circle id="Oval-2" fill="#FFFFFF" cx="51" cy="39" r="1"></circle>
                <circle id="Oval-2" fill="#FFFFFF" cx="47" cy="39" r="1"></circle>
                <path d="M64,23 C64,23 72,23 72,31 C72,39 64,39 64,39" id="Path-5" stroke="url(#linearGradient-1)" stroke-width="2" stroke-linecap="round" stroke-linejoin="round"></path>
                <path d="M0,7 C0,7 8,7 8,15 C8,23 0,23 0,23" id="Path-5" stroke="url(#linearGradient-2)" stroke-width="2" stroke-linecap="round" stroke-linejoin="round" transform="translate(4.000000, 15.000000) scale(-1, 1) translate(-4.000000, -15.000000) "></path>
            </g>
        </g>
    </g>
</svg>