<?xml version="1.0" encoding="UTF-8"?>
<svg width="60px" height="58px" viewBox="0 0 60 58" version="1.1" xmlns="http://www.w3.org/2000/svg" xmlns:xlink="http://www.w3.org/1999/xlink">
    <!-- Generator: Sketch 41.2 (35397) - http://www.bohemiancoding.com/sketch -->
    <title>workflow-white</title>
    <desc>Created with Sketch.</desc>
    <defs></defs>
    <g id="Page-1" stroke="none" stroke-width="1" fill="none" fill-rule="evenodd">
        <g id="Artboard" transform="translate(-220.000000, -60.000000)">
            <g id="workflow-white" transform="translate(220.000000, 60.000000)">
                <g id="man2" transform="translate(0.000000, 37.000000)">
                    <path d="M10.4990455,21 C4.70972727,21 0,16.2893182 0,10.5 C0,4.71068182 4.70972727,0 10.4990455,0 C16.2883636,0 20.9980909,4.71068182 20.9980909,10.5 C20.9980909,16.2893182 16.2883636,21 10.4990455,21 Z" id="Path" fill="#FFFFFF"></path>
                    <path d="M3.63599548,15.5379585 C2.60756366,14.1297391 2,12.39558 2,10.5222748 C2,5.82340235 5.8226276,2 10.5215,2 C15.2203724,2 19.043,5.82340235 19.043,10.5222748 C19.043,12.4012804 18.4317331,14.1402918 17.3976044,15.5508048 C13.3585511,13.9856262 12.6802883,13.3205306 12.572891,13.1148292 L12.572891,12.5727502 C13.0312488,12.070927 13.3894854,11.412581 13.6147269,10.6553456 C13.8967164,10.4215615 14.0847093,10.0848874 14.1359574,9.71589607 C14.187893,9.34077886 14.0981463,8.96991228 13.8820919,8.65980455 L13.8820919,7.13889526 C13.8820919,5.14397933 12.6492632,4 10.5002812,4 C8.38179818,4 7.11690812,5.17329611 7.11690812,7.13889526 L7.11690812,8.66067968 C6.90147869,8.97016232 6.81173206,9.34071635 6.86366761,9.71552101 C6.91491569,10.0845748 7.10259615,10.4208739 7.38427309,10.6549705 C7.61013962,11.4122685 7.9680637,12.070927 8.426734,12.5726877 L8.426734,13.1147667 C8.32001266,13.3192038 7.64584059,13.9800054 3.63599548,15.5379585 Z" id="Combined-Shape" fill="#0961C4" opacity="0.5"></path>
                </g>
                <g id="man1" transform="translate(39.000000, 37.000000)">
                    <path d="M10.4990455,21 C4.70972727,21 0,16.2893182 0,10.5 C0,4.71068182 4.70972727,0 10.4990455,0 C16.2883636,0 20.9980909,4.71068182 20.9980909,10.5 C20.9980909,16.2893182 16.2883636,21 10.4990455,21 Z" id="Path" fill="#FFFFFF"></path>
                    <path d="M3.63186781,15.9867278 C2.60603076,14.5318274 2,12.7401827 2,10.8047793 C2,5.95014419 5.812983,2 10.5,2 C15.187017,2 19,5.95014419 19,10.8047793 C19,12.7460721 18.3902754,14.5427299 17.3587558,16 C13.3298932,14.3829373 12.6533416,13.6957945 12.5462153,13.4832743 L12.5462153,12.9232259 C13.0034167,12.4047678 13.3607494,11.7245983 13.5854226,10.9422613 C13.8667006,10.7007275 14.0542192,10.352893 14.105338,9.97167004 C14.1571425,9.58411808 14.0676223,9.20095766 13.852113,8.88057018 L13.852113,7.30924431 C13.852113,5.24819899 12.6864677,3.92755127 10.5429077,3.92755127 C10.1650371,3.92755127 9.08148193,3.55401611 8.75622559,3.47875977 C8.51015704,3.42182554 8.27056885,3.79064941 8.16992188,4.21411133 C8.14409674,4.32276795 7.84375562,4.80468259 7.69188688,4.99258684 C7.24023874,5.55140235 7.103998,6.34332762 7.103998,7.30924431 L7.103998,8.88147432 C6.88911212,9.20121598 6.79959192,9.5840535 6.85139643,9.97128255 C6.90251521,10.3525701 7.08972215,10.7000171 7.37068841,10.9418738 C7.59598507,11.7242754 7.95300609,12.4047678 8.41051915,12.9231613 L8.41051915,13.4832097 C8.30406708,13.6944236 7.63159596,14.3771302 3.63186781,15.9867278 Z" id="Combined-Shape" fill="#0961C4" opacity="0.5"></path>
                </g>
                <g id="woman" transform="translate(19.000000, 0.000000)">
                    <path d="M10.4990455,21 C4.70972727,21 0,16.2893182 0,10.5 C0,4.71068182 4.70972727,0 10.4990455,0 C16.2883636,0 20.9980909,4.71068182 20.9980909,10.5 C20.9980909,16.2893182 16.2883636,21 10.4990455,21 Z" id="Path" fill="#FFFFFF"></path>
                    <path d="M3.81801116,15.778209 C2.67963018,14.3292123 2,12.503569 2,10.5222748 C2,5.82340235 5.8226276,2 10.5215,2 C15.2203724,2 19.043,5.82340235 19.043,10.5222748 C19.043,12.4484495 18.4006584,14.2275133 17.318928,15.6564063 C16.3030515,15.2754592 15.2411014,15.073172 14.38406,14.9103748 C13.75304,14.7902548 12.8132,14.6115148 12.67724,14.4322348 L12.67724,13.8034948 C14.75612,13.7373148 15.6239,13.0570348 15.6614,13.0271548 C15.73934,12.9644548 15.78038,12.8677348 15.77216,12.7687348 C15.764,12.6691348 15.70712,12.5806948 15.62042,12.5320348 C15.07898,12.2273548 14.67122,10.0581748 14.55518,8.63935475 C14.55518,6.70927475 13.0769,4.62625475 10.6886,4.62625475 C8.55632,4.62625475 6.82166,6.42655475 6.82256,8.61529475 C6.70628,10.0578748 6.29846,12.2266948 5.75618,12.5319748 C5.66948,12.5805748 5.61266,12.6690748 5.60444,12.7686748 C5.59598,12.8677348 5.63756,12.9643948 5.7149,13.0270948 C5.7527,13.0569748 6.62048,13.7371948 8.69966,13.8034348 L8.69966,14.4321748 C8.564,14.6109148 7.62536,14.7895948 6.99428,14.9097148 C6.12122,15.0755548 5.03462,15.2823748 4.001,15.6778948 C3.934915,15.703306 3.87355935,15.7372638 3.81801116,15.778209 Z" id="Combined-Shape" fill="#0961C4" opacity="0.5"></path>
                    <path d="M2.47018281,37.152 L10.0001828,32.446 L10.0001828,25 C10.0001828,24.447 10.4471828,24 10.9991828,24 C11.5511828,24 11.9991828,24.447 11.9991828,25 L11.9991828,32.445 L19.5281828,37.152 C19.9971828,37.444 20.1391828,38.061 19.8471828,38.53 C19.6571828,38.834 19.3311828,39 18.9981828,39 C18.8171828,39 18.6331828,38.951 18.4691828,38.848 L10.9991828,34.179 L3.53018281,38.848 C3.36518281,38.951 3.18218281,39 3.00118281,39 C2.66818281,39 2.34218281,38.834 2.15218281,38.53 C1.85918281,38.061 2.00218281,37.444 2.47018281,37.152 Z" id="connecting" fill="#FFFFFF" opacity="0.5"></path>
                </g>
            </g>
        </g>
    </g>
</svg>