<?xml version="1.0" encoding="UTF-8"?>
<svg width="690px" height="112px" viewBox="0 0 690 112" version="1.1" xmlns="http://www.w3.org/2000/svg" xmlns:xlink="http://www.w3.org/1999/xlink" style="background: #FFFFFF;">
    <!-- Generator: Sketch 47.1 (45422) - http://www.bohemiancoding.com/sketch -->
    <title>flow</title>
    <desc>Created with Sketch.</desc>
    <g id="Page-1" stroke="none" stroke-width="1" fill="none" fill-rule="evenodd">
        <g id="flow">
            <g id="Group-3" transform="translate(0.000000, -3.000000)">
                <g id="Group" transform="translate(168.000000, 35.000000)" fill="#C31633">
                    <circle id="Oval" opacity="0.200000003" cx="5" cy="5" r="5"></circle>
                    <circle id="Oval" cx="5" cy="5" r="2"></circle>
                </g>
                <g id="Group-2" transform="translate(0.000000, 35.000000)" fill="#DC4904">
                    <polygon id="Rectangle" opacity="0.300000012" points="10 0 10 10 0 10"></polygon>
                    <polygon id="Rectangle" points="10 4 10 10 4 10"></polygon>
                </g>
                <polygon id="Rectangle" fill="#0961C4" opacity="0.300000012" transform="translate(418.000000, 40.000000) scale(-1, 1) translate(-418.000000, -40.000000) " points="423 35 423 45 413 45"></polygon>
                <polygon id="Rectangle" fill="#0961C4" transform="translate(416.000000, 42.000000) scale(-1, 1) translate(-416.000000, -42.000000) " points="419 39 419 45 413 45"></polygon>
                <g id="Group-4" transform="translate(559.000000, 35.000000)" fill="#4CAF50">
                    <rect id="Rectangle-2" opacity="0.300000012" x="0" y="0" width="10" height="10"></rect>
                    <rect id="Rectangle" x="3" y="3" width="4" height="4"></rect>
                </g>
                <path d="M294.5,-58.8956044 L294.5,139.895604" id="Line-2" stroke="#C31633" stroke-width="3" stroke-linecap="round" stroke-linejoin="round" transform="translate(294.500000, 40.500000) rotate(-90.000000) translate(-294.500000, -40.500000) "></path>
                <path d="M90.5,-19.3351648 L90.5,100.335165" id="Line-2" stroke="#DC4904" stroke-width="3" stroke-linecap="round" stroke-linejoin="round" transform="translate(90.500000, 40.500000) rotate(-90.000000) translate(-90.500000, -40.500000) "></path>
                <path d="M490.5,-13.7197802 L490.5,93.5" id="Line-2" stroke="#0961C4" stroke-width="3" stroke-linecap="round" stroke-linejoin="round" transform="translate(490.500000, 40.000000) rotate(-90.000000) translate(-490.500000, -40.000000) "></path>
                <path d="M636.5,-13.5 L636.5,91.5" id="Line-2" stroke="#4CAF50" stroke-width="3" stroke-linecap="round" stroke-linejoin="round" transform="translate(636.500000, 40.000000) rotate(-90.000000) translate(-636.500000, -40.000000) "></path>
                <text id="Warming-up" font-family="sans-serif" font-size="12" font-weight="bold" fill="#DC4904">
                    <tspan x="1" y="14">Warming up</tspan>
                </text>
                <text id="Ongoing" font-family="sans-serif" font-size="12" font-weight="bold" fill="#C31633">
                    <tspan x="168" y="14">Ongoing</tspan>
                </text>
                <text id="Cooling-down" font-family="sans-serif" font-size="12" font-weight="bold" fill="#0961C4">
                    <tspan x="411" y="14">Cooling down</tspan>
                </text>
                <text id="Open-alert" font-family="sans-serif" font-size="12" font-weight="bold" fill="#546E7A">
                    <tspan x="156.14" y="97">Open</tspan>
                    <tspan x="159.171" y="114">alert</tspan>
                </text>
                <path d="M172.5,58.5 L172.5,75.5293864" id="Line" stroke="#CFD8DC" stroke-linecap="square"></path>
                <text id="Close-alert" font-family="sans-serif" font-size="12" font-weight="bold" fill="#546E7A">
                    <tspan x="547.685" y="97">Close</tspan>
                    <tspan x="551.171" y="114">alert</tspan>
                </text>
                <path d="M564.5,58.5 L564.5,75.5293864" id="Line" stroke="#CFD8DC" stroke-linecap="square"></path>
                <text id="Alert-Reminders" font-family="sans-serif" font-size="12" font-weight="bold" fill="#546E7A">
                    <tspan x="283.184" y="97">Alert</tspan>
                    <tspan x="264.501" y="114">Reminders</tspan>
                </text>
                <path d="M297.5,58.5 L297.5,75.5293864" id="Line" stroke="#CFD8DC" stroke-linecap="square"></path>
                <path d="M257.5,58.5 L287.5,75.5293864" id="Line" stroke="#CFD8DC" stroke-linecap="square"></path>
                <path d="M337.5,58.5 L307.5,75.5293864" id="Line" stroke="#CFD8DC" stroke-linecap="square"></path>
                <text id="Finished" font-family="sans-serif" font-size="12" font-weight="bold" fill="#4CAF50">
                    <tspan x="558" y="14">Closed</tspan>
                </text>
            </g>
        </g>
    </g>
</svg>
