<?xml version="1.0" encoding="utf-8"?>
<!-- Generator: Adobe Illustrator 18.1.0, SVG Export Plug-In . SVG Version: 6.00 Build 0)  -->
<!DOCTYPE svg PUBLIC "-//W3C//DTD SVG 1.1//EN" "http://www.w3.org/Graphics/SVG/1.1/DTD/svg11.dtd">
<svg version="1.1" xmlns="http://www.w3.org/2000/svg" xmlns:xlink="http://www.w3.org/1999/xlink" x="0px" y="0px"
	 viewBox="0 0 478 82" enable-background="new 0 0 478 82" xml:space="preserve">
<g id="AppSignal_copy_1_" enable-background="new    ">
	<g id="AppSignal_copy">
		<g>
			<path fill="#FFFFFF" d="M173.3,28.2c-7.6-3.3-11-5.8-11-11c0-3.9,3-8.1,10.2-8.1c5,0,8.7,1.6,10.7,2.7l2.2-7.6
				c-2.6-1.3-6.9-2.8-12.7-2.8c-12,0-19.6,7.2-19.6,16.8c0,8.2,6.1,13.7,15.1,17.3c7.2,3,10.2,6.2,10.2,11.3c0,5.5-4,9.2-11.2,9.2
				c-5,0-9.9-1.6-13.1-3.6l-2,7.7c2.9,2,8.9,3.6,14.6,3.6c13.6,0,21-7.6,21-17.7C187.6,37.8,183,32.5,173.3,28.2z M201.5,2
				c-3.2,0-5.4,2.3-5.4,5.4c0,2.9,2.1,5.3,5.3,5.3c3.3,0,5.4-2.4,5.4-5.3C206.8,4.3,204.7,2,201.5,2z M196.9,62.9h9.1V19.3h-9.1
				V62.9z M245.5,25.2h-0.2c-1.8-3.5-5.4-6.8-11.9-6.8c-9.5,0-18.4,8.2-18.4,23c0,12.2,7,21.3,17.3,21.3c5.6,0,9.9-2.7,12.1-6.4h0.2
				v4.2c0,9.9-5,13.8-12.1,13.8c-4.9,0-9.1-1.5-11.7-3.1l-2,7.1c3.4,2.1,8.7,3.2,13.7,3.2c20.6,0,21.3-16,21.3-24.7V31.9
				c0-5.8,0.2-9.5,0.4-12.6h-8.1L245.5,25.2z M244.5,44.7c0,7.3-4.7,10.9-9.5,10.9c-6.8,0-10.6-6.1-10.6-14.6
				c0-9.3,4.4-15.3,10.7-15.3c5.6,0,9.4,4.7,9.4,10.5V44.7z M286.8,18.4c-6.5,0-11.1,3.7-13.2,7.4h-0.2l-0.5-6.5h-8
				c0.2,3.7,0.3,7.4,0.3,12.3v31.3h9.1V36.7c0-7,4.8-10.7,9.3-10.7c6.2,0,8.3,5.2,8.3,11.4v25.5h9.1V36.3
				C301.2,22.9,293.6,18.4,286.8,18.4z M343.1,36.1c0-9.2-3.5-17.7-16.3-17.7c-5.8,0-11,1.7-14,3.6l1.9,6.1c2.8-1.8,6.7-3,10.6-3
				c8.7,0,8.7,6.5,8.7,9.7c-14.9,0-24.3,5.4-24.3,16.2c0,6.7,4.7,12.7,12.8,12.7c5.4,0,9.7-2.5,12.1-5.9h0.2l0.6,5.1h8.3
				c-0.6-2.8-0.6-6.6-0.6-10.4V36.1z M334.2,48.2c0,5.1-4.1,8.9-9.1,8.9c-3.4,0-6.4-2.1-6.4-7c0-7.7,8.3-9.1,15.4-9.1V48.2z
				 M354.6,4.1v58.8h9.1V-0.5L354.6,4.1z"/>
		</g>
	</g>
</g>
<g id="App">
	<g opacity="0.7">
		<path fill="#FFFFFF" d="M48.3,62.8h-9.7l-5.5-18H14.4l-5.3,18h-9.5L18.3,1.6h11.3L48.3,62.8z M31.6,37.7l-4.8-16
			c-1.1-4-2.1-8.3-3-12.1h-0.2c-0.9,3.8-1.8,8.2-2.9,12l-4.9,16.1H31.6z"/>
		<path fill="#FFFFFF" d="M64.7,25.4c3-5,7.8-7.7,13.9-7.7c9.9,0,17.3,8.8,17.3,22.5c0,16.2-9.3,23.4-18.5,23.4
			c-5.3,0-9.6-2.5-11.7-6.1h-0.2v23h-9.2V32.9c0-5.8-0.2-10.3-0.3-14.2H64l0.5,6.7H64.7z M65.5,45c0,7.9,5.4,11.3,10,11.3
			c7.2,0,11.1-6.6,11.1-15.8c0-8.4-3.7-15.4-10.8-15.4c-5.5,0-10.2,5.2-10.2,11.7V45z"/>
		<path fill="#FFFFFF" d="M113.4,25.4c3-5,7.8-7.7,13.9-7.7c9.9,0,17.3,8.8,17.3,22.5c0,16.2-9.3,23.4-18.5,23.4
			c-5.3,0-9.6-2.5-11.7-6.1h-0.2v23h-9.2V32.9c0-5.8-0.2-10.3-0.3-14.2h8.1l0.5,6.7H113.4z M114.2,45c0,7.9,5.4,11.3,10,11.3
			c7.2,0,11.1-6.6,11.1-15.8c0-8.4-3.7-15.4-10.8-15.4c-5.5,0-10.2,5.2-10.2,11.7V45z"/>
	</g>
</g>
<g id="Shape_3_1_" opacity="0.8" enable-background="new    ">
	<g id="Shape_3" opacity="0.7">
		<g>
			<polygon fill="#FFFFFF" points="450.3,15.2 437.7,27.9 425,10.2 387.2,62.9 478,62.9 			"/>
		</g>
	</g>
</g>
<g id="Shape_2_1_" opacity="0.702" enable-background="new    ">
	<g id="Shape_2" opacity="0.7">
		<g>
			<polygon fill="#FFFFFF" points="407.4,-0.5 382.2,62.9 445.2,62.9 			"/>
		</g>
	</g>
</g>
<g id="Shape_4_1_" opacity="0.8" enable-background="new    ">
	<g id="Shape_4" opacity="0.7">
		<g>
			<polygon fill="#FFFFFF" points="427.6,62.9 478,62.9 478,4.6 			"/>
		</g>
	</g>
</g>
<g id="Shape_1_1_" opacity="0.702" enable-background="new    ">
	<g id="Shape_1" opacity="0.7">
		<g>
			<polygon fill="#FFFFFF" points="382.2,10.2 382.2,62.9 445.2,62.9 			"/>
		</g>
	</g>
</g>
</svg>
